<?xml version="1.0" standalone="no"?>
<!DOCTYPE svg PUBLIC "-//W3C//DTD SVG 20010904//EN"
 "http://www.w3.org/TR/2001/REC-SVG-20010904/DTD/svg10.dtd">
<svg version="1.0" xmlns="http://www.w3.org/2000/svg"
 width="197.000000pt" height="231.000000pt" viewBox="0 0 197.000000 231.000000"
 preserveAspectRatio="xMidYMid meet">

<g transform="translate(0.000000,231.000000) scale(0.100000,-0.100000)"
fill="#FF0000" stroke="white">
<path d="M839 2040 c-399 -68 -701 -340 -814 -734 -22 -78 -25 -107 -25 -249
0 -88 4 -174 10 -191 5 -17 21 -69 36 -115 77 -250 261 -461 509 -581 141 -69
231 -91 400 -97 128 -5 150 -3 250 21 129 31 279 100 376 174 70 54 173 160
221 231 54 77 118 217 144 316 24 91 25 109 21 269 -4 188 -15 237 -90 399
-102 220 -304 410 -528 497 -154 59 -365 84 -510 60z m47 -475 c29 -19 26 -27
-19 -48 -25 -12 -42 -14 -72 -7 -82 19 -155 -16 -193 -92 -19 -38 -21 -50 -12
-74 23 -59 85 -106 290 -218 119 -65 193 -131 221 -194 18 -42 25 -82 13 -82
-3 0 -17 14 -31 30 -38 45 -97 83 -253 161 -155 77 -242 141 -289 209 -36 53
-61 120 -61 163 0 61 64 124 163 159 63 23 204 19 243 -7z m443 -9 c85 -34
107 -34 126 4 15 29 38 39 49 21 8 -12 15 -110 18 -241 4 -131 -12 -140 -57
-35 -40 93 -72 133 -138 173 -45 27 -69 34 -130 39 -44 3 -88 1 -108 -6 l-34
-11 3 -130 c3 -114 2 -131 -13 -136 -20 -8 -31 7 -40 55 -8 42 -47 131 -57
131 -18 0 -69 -94 -87 -160 -11 -40 -23 -75 -26 -78 -6 -6 -86 36 -121 63 -26
21 -26 21 -10 60 57 134 205 248 366 279 65 12 196 -2 259 -28z m-869 -116 c0
-170 96 -287 333 -406 236 -118 272 -146 338 -259 29 -51 68 -189 56 -201 -4
-4 -27 17 -53 45 -26 29 -63 60 -83 71 -37 19 -160 40 -231 40 -61 0 -192 46
-248 87 -86 64 -142 174 -142 279 0 50 17 67 26 27 17 -79 38 -125 74 -162 64
-65 138 -94 310 -121 83 -13 162 -35 200 -58 16 -9 13 -4 -10 16 -19 17 -82
52 -140 78 -212 93 -261 124 -344 216 -92 101 -134 216 -123 335 4 35 9 68 12
73 16 26 25 4 25 -60z m293 -527 c59 -31 68 -39 48 -41 -27 -4 -109 16 -128
31 -16 12 -17 47 -2 47 5 0 42 -17 82 -37z m-248 -67 c9 -13 17 -33 20 -44 6
-34 42 -96 72 -124 41 -40 114 -68 190 -75 101 -8 169 -47 117 -67 -37 -14
-181 -6 -249 15 -97 29 -126 29 -141 1 -16 -33 -22 -36 -39 -22 -22 18 -23
340 0 340 8 0 22 -11 30 -24z m1042 -32 c7 -20 -58 -114 -111 -161 -45 -39
-142 -89 -193 -99 -33 -6 -33 -6 -33 33 l0 39 59 12 c34 7 77 25 102 43 41 29
57 45 125 122 27 31 42 34 51 11z m-517 -149 c62 -31 120 -83 120 -106 0 -19
-34 -21 -108 -7 -101 20 -163 50 -226 110 l-51 49 99 -6 c86 -6 109 -11 166
-40z"/>
</g>
</svg>
